<svg xmlns="http://www.w3.org/2000/svg" viewBox="0 0 900 700" role="img" aria-labelledby="title desc">
  <title id="title">Disc golf illustration</title>
  <desc id="desc">A stylized disc golf basket on a green course with a disc flying through the air.</desc>
  <rect width="900" height="700" fill="#dff0d8"/>
  <rect y="470" width="900" height="230" fill="#8fbe6b"/>
  <circle cx="760" cy="125" r="55" fill="#ffd86b"/>
  <path d="M0 480 C150 410 250 420 360 465 C520 530 700 520 900 450 L900 700 L0 700 Z" fill="#78ab54"/>
  <path d="M0 500 C120 450 270 470 390 520 C500 565 700 560 900 500 L900 700 L0 700 Z" fill="#609646"/>
  <path d="M120 460 L155 305 L190 460 Z" fill="#567d3f"/>
  <path d="M190 460 L225 265 L260 460 Z" fill="#6f9c4e"/>
  <path d="M660 470 L690 310 L720 470 Z" fill="#648f48"/>
  <rect x="430" y="260" width="18" height="250" rx="9" fill="#7e858d"/>
  <ellipse cx="439" cy="255" rx="105" ry="26" fill="#c6b35c" stroke="#374232" stroke-width="8"/>
  <ellipse cx="439" cy="315" rx="72" ry="18" fill="#c6b35c" stroke="#374232" stroke-width="8"/>
  <line x1="372" y1="258" x2="394" y2="314" stroke="#8d8d8d" stroke-width="6"/>
  <line x1="398" y1="254" x2="414" y2="313" stroke="#8d8d8d" stroke-width="6"/>
  <line x1="425" y1="252" x2="430" y2="313" stroke="#8d8d8d" stroke-width="6"/>
  <line x1="453" y1="252" x2="448" y2="313" stroke="#8d8d8d" stroke-width="6"/>
  <line x1="480" y1="255" x2="464" y2="313" stroke="#8d8d8d" stroke-width="6"/>
  <line x1="506" y1="258" x2="486" y2="314" stroke="#8d8d8d" stroke-width="6"/>
  <ellipse cx="439" cy="505" rx="132" ry="28" fill="#c6b35c" stroke="#374232" stroke-width="8"/>
  <path d="M210 170 C330 105 450 100 610 140" fill="none" stroke="#ffffff" stroke-width="14" stroke-linecap="round"/>
  <ellipse cx="182" cy="178" rx="50" ry="18" fill="#ff7f44" stroke="#374232" stroke-width="8" transform="rotate(-12 182 178)"/>
  <circle cx="105" cy="140" r="38" fill="#ffffff" opacity="0.9"/>
  <circle cx="142" cy="129" r="32" fill="#ffffff" opacity="0.9"/>
  <circle cx="172" cy="144" r="35" fill="#ffffff" opacity="0.9"/>
  <circle cx="262" cy="111" r="26" fill="#ffffff" opacity="0.85"/>
  <circle cx="294" cy="104" r="22" fill="#ffffff" opacity="0.85"/>
  <circle cx="320" cy="116" r="24" fill="#ffffff" opacity="0.85"/>
</svg>
